<?xml version="1.0" standalone="no"?>
<!DOCTYPE svg PUBLIC "-//W3C//DTD SVG 20010904//EN"
 "http://www.w3.org/TR/2001/REC-SVG-20010904/DTD/svg10.dtd">
<svg version="1.0" xmlns="http://www.w3.org/2000/svg"
 width="84.000000pt" height="84.000000pt" viewBox="0 0 84.000000 84.000000"
 preserveAspectRatio="xMidYMid meet">
<metadata>
Created by potrace 1.11, written by Peter Selinger 2001-2013
</metadata>
<g transform="translate(0.000000,84.000000) scale(0.100000,-0.100000)"
fill="#000000" stroke="none">
<path d="M382 802 c-31 -34 -32 -37 -16 -49 31 -22 124 -13 124 12 0 11 -66
77 -73 74 -1 -1 -17 -17 -35 -37z"/>
<path d="M267 684 l-38 -42 34 -20 c69 -40 144 -53 227 -37 38 7 120 51 120
64 0 10 -67 71 -79 71 -5 0 -22 -7 -37 -15 -39 -20 -107 -19 -152 3 l-37 18
-38 -42z"/>
<path d="M154 569 l-39 -40 25 -20 c100 -78 256 -111 384 -82 63 14 164 64
190 92 14 16 12 20 -23 55 l-39 38 -38 -26 c-104 -68 -261 -77 -351 -20 -13 8
-33 21 -46 29 -22 14 -25 13 -63 -26z"/>
<path d="M37 454 c-43 -41 -44 -41 53 -103 135 -88 325 -119 480 -80 78 20
203 82 247 123 l27 26 -34 35 c-19 19 -38 35 -44 35 -5 0 -24 -12 -43 -26
-121 -92 -308 -123 -456 -73 -64 21 -167 77 -167 91 0 18 -27 6 -63 -28z"/>
<path d="M180 243 c0 -8 232 -243 240 -243 8 0 251 243 247 246 -2 2 -22 -3
-44 -11 -94 -33 -294 -41 -342 -15 -12 6 -21 8 -21 6 0 -3 -18 1 -40 9 -22 8
-40 11 -40 8z"/>
</g>
</svg>
